<svg width="16" height="16" viewBox="0 0 16 16" fill="none" xmlns="http://www.w3.org/2000/svg">
<path d="M15.8338 15.0481L10.9555 10.1898C11.9888 8.97342 12.5115 7.4069 12.4148 5.81626C12.3181 4.22562 11.6095 2.73339 10.4365 1.65015C9.26344 0.566919 7.71632 -0.0238733 6.11712 0.000739255C4.51793 0.0253518 2.98986 0.663474 1.85095 1.78229C0.712045 2.90111 0.050041 4.41443 0.00272252 6.00729C-0.044596 7.60015 0.526417 9.14984 1.59691 10.3338C2.66741 11.5178 4.15493 12.2448 5.74986 12.3636C7.3448 12.4825 8.92428 11.9839 10.1596 10.9717L15.0446 15.8367C15.1496 15.9413 15.2919 16 15.4404 16C15.5888 16 15.7311 15.9413 15.8361 15.8367C15.941 15.7321 16 15.5903 16 15.4424C16 15.2945 15.941 15.1527 15.8361 15.0481H15.8338ZM1.10489 6.18459C1.10444 5.17823 1.40355 4.19434 1.96438 3.35736C2.52521 2.52039 3.32257 1.86793 4.2556 1.4825C5.18863 1.09708 6.21543 0.996005 7.20612 1.19207C8.19681 1.38813 9.1069 1.87252 9.82126 2.58397C10.5356 3.29542 11.0222 4.20197 11.2194 5.18897C11.4166 6.17596 11.3156 7.19906 10.9292 8.12886C10.5428 9.05866 9.88827 9.8534 9.04848 10.4125C8.20869 10.9717 7.22133 11.2701 6.21128 11.2701C4.85773 11.269 3.55993 10.7329 2.60261 9.77946C1.6453 8.82605 1.10666 7.53321 1.10489 6.18459Z" fill="black"/>
</svg>
